<?xml version="1.0" encoding="UTF-8"?>
<svg version="1.1" xmlns="http://www.w3.org/2000/svg" width="24" height="24">
<path d="M0 0 C0.66 0.66 1.32 1.32 2 2 C2.99 1.67 3.98 1.34 5 1 C4.9375 3.3125 4.9375 3.3125 4 6 C0.4375 7.8125 0.4375 7.8125 -3 9 C-2.67 9.66 -2.34 10.32 -2 11 C-1.5875 10.505 -1.175 10.01 -0.75 9.5 C1 8 1 8 5 8 C5 12.29 5 16.58 5 21 C3.35 20.67 1.7 20.34 0 20 C-1.67542976 20.28604898 -3.34385343 20.61781233 -5 21 C-6.32 21 -7.64 21 -9 21 C-9 17.37 -9 13.74 -9 10 C-10.32 9.67 -11.64 9.34 -13 9 C-13 8.01 -13 7.02 -13 6 C-11.35 6 -9.7 6 -8 6 C-8 4.02 -8 2.04 -8 0 C-4.96083486 -0.97687451 -3.01586454 -1.105817 0 0 Z " fill="#FFFFFF" transform="translate(16,2)"/>
</svg>
