<?xml version="1.0" encoding="UTF-8"?>
<svg version="1.1" xmlns="http://www.w3.org/2000/svg" width="32" height="32">
<path d="M0 0 C1.3125 2.0625 1.3125 2.0625 2 4 C2.66 3.34 3.32 2.68 4 2 C5.32 2 6.64 2 8 2 C8 4.25 8 4.25 7 7 C3.52611069 9.43795371 0.26177936 11 -4 11 C-3.34 12.98 -2.68 14.96 -2 17 C-1.34 15.35 -0.68 13.7 0 12 C3.465 11.505 3.465 11.505 7 11 C6.98839844 11.88042969 6.97679688 12.76085938 6.96484375 13.66796875 C6.95582031 14.82941406 6.94679688 15.99085937 6.9375 17.1875 C6.92589844 18.33605469 6.91429688 19.48460938 6.90234375 20.66796875 C6.98807168 23.59300586 7.32150977 26.16316291 8 29 C6.02 29 4.04 29 2 29 C1.67 28.34 1.34 27.68 1 27 C-0.65 27.33 -2.3 27.66 -4 28 C-4.33 27.01 -4.66 26.02 -5 25 C-5.33 26.32 -5.66 27.64 -6 29 C-7.98 29 -9.96 29 -12 29 C-12 28.34 -12 27.68 -12 27 C-11.34 27 -10.68 27 -10 27 C-9.97303635 25.20841511 -9.95362083 23.41671527 -9.9375 21.625 C-9.92589844 20.62726562 -9.91429687 19.62953125 -9.90234375 18.6015625 C-9.81993398 16.01567547 -9.81993398 16.01567547 -11 14 C-12.97888961 13.27306096 -14.97954558 12.60183749 -17 12 C-16.67 10.68 -16.34 9.36 -16 8 C-14.02 8 -12.04 8 -10 8 C-10 5.69 -10 3.38 -10 1 C-6.29223511 -0.80091438 -3.93496467 -1.48890555 0 0 Z " fill="#FFFFFF" transform="translate(21,2)"/>
</svg>
